# xmcd
#
# Track frame offsets:
#	150
#	11206
#	24003
#	43866
#	66123
#	79438
#	100288
#	119319
#	143236
#	158329
#	175491
#	190946
#	207085
#
# Disc length: 2939 seconds
#
# Revision: 1
# Processed by: cddbd v1.5.2PL0 Copyright (c) Steve Scherf et al.
# Submitted via: EasyCDDAExtractor 16.0.6.1
#
DISCID=ac0b790d
DTITLE=Άνευ ερμηνευτού - Cafe de l'art 5
DYEAR=2005
DGENRE=Ορχηστρική
TTITLE0=Άνευ ερμηνευτού - Μπαξέ τσιφλίκι (Πάμε τσάρκα)[Β. Τσιτσάνης]
TTITLE1=Άνευ ερμηνευτού - Τα ματόκλαδά σου λάμπουν [Μ. Βαμβακάρης]
TTITLE2=Θεοδωρίδου Σόνια - Αχάριστη [Β. Τσιτσάνης]
TTITLE3=Άνευ ερμηνευτού - Ρίξε τσιγγάνα τα χαρτιά [Μ. Βαμβακάρης-Γ. Φωτίδας]
TTITLE4=Άνευ ερμηνευτού - Ξημερώνει και βραδιάζει [Β. Τσιτσάνης]
TTITLE5=Άνευ ερμηνευτού - Μινόρε της αυγής [Σ. Περιστέρης-Μ. Μάτσας]
TTITLE6=Άνευ ερμηνευτού - Ακρογιαλιές, δειλινά [Β. Τσιτσάνης]
TTITLE7=Άνευ ερμηνευτού - Όλοι οι ρεμπέτες του ντουνιά [Μ. Βαμβακάρης]
TTITLE8=Άνευ ερμηνευτού - Αχάριστη [Β. Τσιτσάνης]
TTITLE9=Άνευ ερμηνευτού - Χαράματα η ώρα τρεις [Μ. Βαμβακάρης]
TTITLE10=Άνευ ερμηνευτού - Χωρίσαμε ένα δειλινό [Β. Τσιτσάνης]
TTITLE11=Άνευ ερμηνευτού - Καραβοτσακίσματα [Μ. Βαμβακάρης]
TTITLE12=Άνευ ερμηνευτού - Ό,τι κι αν πω δε σε ξεχνώ [Β. Τσιτσάνης]
EXTD=
EXTT0=
EXTT1=
EXTT2=
EXTT3=
EXTT4=
EXTT5=
EXTT6=
EXTT7=
EXTT8=
EXTT9=
EXTT10=
EXTT11=
EXTT12=
PLAYORDER=
